<?xml version="1.0" encoding="UTF-8" standalone="no"?>
<!DOCTYPE svg PUBLIC "-//W3C//DTD SVG 1.1//EN" "http://www.w3.org/Graphics/SVG/1.1/DTD/svg11.dtd">
<svg width="100%" height="100%" viewBox="0 0 357 357" version="1.1" xmlns="http://www.w3.org/2000/svg" xmlns:xlink="http://www.w3.org/1999/xlink" xml:space="preserve" xmlns:serif="http://www.serif.com/" style="fill-rule:evenodd;clip-rule:evenodd;stroke-linecap:round;stroke-linejoin:round;stroke-miterlimit:1.5;">
    <g transform="matrix(1,0,0,1,-685.893287,-2973.558637)">
        <g transform="matrix(0.47138,0,0,0.666667,665.721515,2953.386865)">
            <g transform="matrix(2.121429,0,0,1.5,-1395.726517,-4441.547245)">
                <path d="M989.207,2981.203C1014.275,2981.203 1034.597,3001.525 1034.597,3026.593L1034.597,3292.321C1034.597,3317.389 1014.275,3337.71 989.207,3337.71L723.48,3337.71C698.412,3337.71 678.09,3317.389 678.09,3292.321L678.09,3026.593C678.09,3001.525 698.412,2981.203 723.48,2981.203L989.207,2981.203Z" style="fill:rgb(0,166,244);"/>
            </g>
            <g transform="matrix(1,0,0,1,3.699747,-22.157313)">
                <g transform="matrix(-0.918304,0.103141,-0.145871,-0.649306,759.733653,358.516345)">
                    <path d="M221.086,231.313C216.398,244.193 214,257.793 214,271.5C214,336.35 266.65,389 331.5,389C396.393,389 449,336.393 449,271.5C449,336.393 396.393,389 331.5,389C266.65,389 214,336.35 214,271.5C214,257.793 216.398,244.193 221.086,231.313Z" style="fill:none;stroke:white;stroke-width:70.73px;"/>
                </g>
                <g transform="matrix(11.284195,0,0,1.062992,-2386.877206,107.222145)">
                    <path d="M268.339,156.846C269.219,155.199 270.152,156.688 270.867,160.883C271.582,165.077 272,171.51 272,178.322L272,179.654C272,188.096 271.238,195.466 270.149,197.561C266.846,203.912 259.805,217.456 254.657,227.358C250.652,235.062 246.452,235.079 242.446,227.407C237.361,217.671 230.424,204.387 227.034,197.894C225.837,195.603 225,187.514 225,178.246L225,178.242C225,171.437 225.417,165.009 226.13,160.808C226.843,156.607 227.774,155.099 228.655,156.718C232.764,164.272 239.451,176.564 243.96,184.852C247.074,190.575 250.326,190.526 253.436,184.711C257.842,176.472 264.316,164.367 268.339,156.846Z" style="fill:white;"/>
                </g>
                <g transform="matrix(6.418038,-4.164668,1.016508,0.783174,-1484.380925,1316.067942)">
                    <path d="M268.011,150C269.069,150 270.084,152.435 270.832,156.77C271.58,161.104 272,166.983 272,173.113L272,194L233.848,194C232.302,194 230.903,188.712 230.279,180.518C229.656,172.324 229.927,162.77 230.969,156.161C231.141,155.074 231.295,154.098 231.427,153.259C231.755,151.183 232.218,150 232.703,150L268.011,150Z" style="fill:white;"/>
                </g>
                <g transform="matrix(-6.418038,-4.164668,-1.016508,0.783174,2320.24103,1316.067942)">
                    <path d="M268.192,150C269.202,150 270.171,152.324 270.885,156.462C271.599,160.599 272,166.211 272,172.062L272,194L234.715,194C233.018,194 231.481,188.193 230.797,179.196C230.113,170.198 230.41,159.708 231.555,152.45C231.615,152.067 231.67,151.723 231.717,151.423C231.86,150.516 232.062,150 232.274,150C235.345,150 258.853,150 268.192,150Z" style="fill:white;"/>
                </g>
            </g>
        </g>
    </g>
</svg>
